<?xml version="1.0" encoding="iso-8859-1"?>
<!-- Generator: Adobe Illustrator 19.0.0, SVG Export Plug-In . SVG Version: 6.00 Build 0)  -->
<svg version="1.1" id="Capa_1" xmlns="http://www.w3.org/2000/svg" xmlns:xlink="http://www.w3.org/1999/xlink" x="0px" y="0px"
	 viewBox="0 0 512 512" style="enable-background:new 0 0 512 512;" xml:space="preserve">
<g>
	<g>
		<path d="M65.071,153.262c-1.86-1.86-4.44-2.93-7.07-2.93c-2.64,0-5.21,1.07-7.07,2.93c-1.87,1.86-2.93,4.44-2.93,7.07
			c0,2.64,1.06,5.21,2.93,7.07c1.86,1.87,4.43,2.93,7.07,2.93c2.63,0,5.21-1.06,7.07-2.93c1.86-1.86,2.93-4.43,2.93-7.07
			C68.001,157.702,66.931,155.122,65.071,153.262z"/>
	</g>
</g>
<g>
	<g>
		<path d="M462.001,27.005H49.999C22.429,27.005,0,49.435,0,77.004v277.993c0,27.569,22.429,49.999,49.999,49.999h84.011v69.998
			c0,4.044,2.437,7.691,6.173,9.239c1.237,0.513,2.536,0.762,3.824,0.762c2.603,0,5.161-1.017,7.074-2.929l77.069-77.069h59.355
			c5.523,0,10-4.477,10-10c0-5.523-4.477-10-10-10h-63.498c-2.652,0-5.196,1.054-7.071,2.929l-62.927,62.927v-55.857
			c0-5.523-4.477-10-10-10h-94.01C33.457,384.997,20,371.54,20,354.998V77.005c0-15.869,12.388-28.891,27.999-29.925v75.752
			c0,5.523,4.477,10,10,10c5.523,0,10-4.477,10-10V47.005h394.003c16.542,0,29.999,13.458,29.999,29.999v277.993
			c0,16.542-13.458,29.999-29.999,29.999h-82.498c-5.523,0-10,4.477-10,10c0,5.523,4.477,10,10,10h82.498
			c27.569,0,49.999-22.429,49.999-49.999V77.004C512,49.435,489.571,27.005,462.001,27.005z"/>
	</g>
</g>
<g>
	<g>
		<path d="M343.074,387.926c-1.86-1.86-4.44-2.93-7.07-2.93s-5.21,1.07-7.07,2.93c-1.86,1.86-2.93,4.44-2.93,7.07
			s1.07,5.21,2.93,7.07c1.86,1.86,4.44,2.93,7.07,2.93s5.21-1.07,7.07-2.93c1.86-1.86,2.93-4.44,2.93-7.07
			S344.934,389.786,343.074,387.926z"/>
	</g>
</g>
<g>
	<g>
		<path d="M256.006,65.179c-49.625,0-89.998,40.373-89.998,89.998c0,16.542,13.458,29.999,29.999,29.999
			c16.542,0,29.999-13.458,29.999-29.999s13.458-29.999,29.999-29.999c16.542,0,29.999,13.458,29.999,29.999
			s-13.458,29.999-29.999,29.999c-16.542,0-29.999,13.458-29.999,29.999v37.999c0,16.542,13.458,29.999,29.999,29.999
			c16.542,0,29.999-13.458,29.999-29.999v-13.136c35.692-12.599,59.998-46.448,59.998-84.862
			C346.004,105.552,305.631,65.179,256.006,65.179z M273.505,222.962c-4.415,1.14-7.499,5.122-7.499,9.682v20.53
			c0,5.514-4.486,10-10,10c-5.514,0-10-4.486-10-10v-37.999c0-5.514,4.486-10,10-10c27.569,0,49.999-22.429,49.999-49.999
			s-22.429-49.999-49.999-49.999c-27.569,0-49.999,22.428-49.999,49.999c0,5.514-4.486,10-10,10c-5.514,0-10-4.486-10-10
			c0-38.597,31.401-69.998,69.998-69.998c38.597,0,69.998,31.401,69.998,69.998C326.005,187.104,304.416,214.979,273.505,222.962z"
			/>
	</g>
</g>
<g>
	<g>
		<path d="M277.227,315.099c-5.576-5.591-13.311-8.799-21.221-8.799c-7.91,0-15.644,3.207-21.202,8.78
			c-5.59,5.576-8.797,13.311-8.797,21.219c0,7.909,3.206,15.644,8.788,21.21c5.586,5.585,13.317,8.789,21.211,8.789
			c7.896,0,15.627-3.204,21.211-8.789c5.585-5.586,8.789-13.317,8.789-21.21C286.006,328.406,282.803,320.675,277.227,315.099z
			 M263.074,343.368c-1.835,1.835-4.477,2.931-7.068,2.931c-2.592,0-5.234-1.096-7.079-2.941c-1.829-1.824-2.921-4.463-2.921-7.059
			c0-2.635,1.065-5.208,2.94-7.078c1.825-1.83,4.464-2.922,7.06-2.922c2.596,0,5.235,1.091,7.068,2.932
			c1.836,1.835,2.932,4.478,2.932,7.068C266.006,338.889,264.91,341.532,263.074,343.368z"/>
	</g>
</g>
<g>
</g>
<g>
</g>
<g>
</g>
<g>
</g>
<g>
</g>
<g>
</g>
<g>
</g>
<g>
</g>
<g>
</g>
<g>
</g>
<g>
</g>
<g>
</g>
<g>
</g>
<g>
</g>
<g>
</g>
</svg>
