<svg xmlns="http://www.w3.org/2000/svg" width="200" height="200">
  <path d="M16 4.21875c-4.547378 0-8.25 3.7026-8.25 8.25 0 2.265479.9299378 4.316741 2.408203 5.804688.01903.03458.03019.06432.08984.121093l2.820312 3.167969c-1.26664.190394-2.365174.491854-3.2128902.892578-.5280191.2496-.9635651.534153-1.2890626.876953-.3254973.3428-.5446184.766816-.5449218 1.228516 0 .5617.3159166 1.0537.7636718 1.4375.4477554.3838 1.0449705.695178 1.7617188.955078 1.433497.5198 3.35313.826072 5.472656.826172 2.119527-.0001 4.039159-.306372 5.472657-.826172.716747-.2599 1.313963-.571278 1.761718-.955078.447756-.3838.763672-.8758.763672-1.4375-.0012-.4603-.220385-.882609-.544922-1.224609-.324536-.3419-.759049-.625701-1.285156-.875-.84533-.400406-1.941797-.701725-3.205078-.892579L22.25 17.863281c.06077-.06905.101325-.15353.117188-.24414C23.50918 16.206741 24.25 14.431503 24.25 12.470703c0-4.4773999-3.601446-8.0995374-8.052734-8.2109374-.062291-.0269148-.129409-.0408699-.197266-.0410156zm-.0078 1.0019531H16c4.005935 0 7.25 3.2442 7.25 7.2499999 0 1.8089-.684998 3.461775-1.785156 4.734375-.03106.0365-.05672.07729-.07617.121094l-3.759766 4.263672c-.0074.0076-.01457.0154-.02148.02344l-.07813.08984c-.01035.0119-.02012.02428-.0293.03711-.0054.0077-.01064.01548-.01563.02344-.01253.02002-.02362.04091-.0332.0625l-.002.0039-.0039.0078c-.0051.01283-.0097.02586-.01367.03906-.0052.01411-.0098.02845-.01367.04297v.0039c-.0033.01549-.006.03113-.0078.04687v.002c-.002.01555.168575-.339894.167975-.324224l-.171875.22461-1.386719 1.546875-1.363281-1.544922-.08203-.01172c.000145-.0163.08152.135379.08003.119139-.0017-.01705-.0043-.034-.0078-.05078-.0031-.01581-.0071-.03145-.01172-.04687v-.002c-.0051-.01525-.011-.03024-.01758-.04492v-.002c-.0065-.01466-.01364-.029-.02149-.04297v-.002c-.0078-.01407-.01627-.02776-.02539-.04102v-.002c-.0098-.01353-.02019-.02657-.03125-.03906l-.0059-.0078-.08203-.09375a.49989204.49989204 0 0 0-.0332-.0332l-.002-.002-3.449219-3.873047h-.0039c-.01797-.032-.02442-.05803-.07813-.111328C9.5717002 16.274891 8.75 14.473756 8.75 12.472656c0-4.0031998 3.240108-7.2434466 7.242188-7.2480466zM16 8.9375c-1.942543 0-3.53125 1.58865-3.53125 3.53125C12.46875 14.41125 14.057437 16 16 16s3.53125-1.58875 3.53125-3.53125c0-1.9426-1.588707-3.53125-3.53125-3.53125zm0 1c1.400097 0 2.53125 1.13115 2.53125 2.53125C18.53125 13.86875 17.400077 15 16 15s-2.53125-1.13125-2.53125-2.53125c0-1.4001 1.131153-2.53125 2.53125-2.53125zm-2.128906 12.558594L15.625 24.486328v.002c.01113.01229.02286.02403.03516.03516.01186.01101.02424.02144.03711.03125h.002c.0051.004.01034.0079.01563.01172.02166.01547.04452.02918.06836.04102.03007.01416.06147.02528.09375.0332.0161.0041.0324.0073.04883.0098h.002c.02392.0037.04807.0057.07227.0059h.03125c.03345.000084.06682-.0032.09961-.0098.0328-.0065.06486-.01636.0957-.0293.01532-.0064.03031-.01358.04492-.02148.02916-.0161.05664-.03507.08203-.05664.01296-.01108.02535-.02281.03711-.03516.0046-.0045.0092-.009.01367-.01367L18.185547 22.5c1.453574.1687 2.735207.467834 3.574219.865234.448849.2127.784952.445857.988281.660157.203329.2142.269122.386362.269531.539062-.000434.1888-.10363.409681-.414062.675781-.311086.2667-.812996.543291-1.453125.775391-1.280258.4642-3.109311.765525-5.13086.765625-2.021548-.0001-3.850601-.301425-5.130859-.765625-.640129-.2321-1.1420397-.508691-1.4531251-.775391-.3110855-.2666-.4140625-.488634-.4140625-.677734.0001006-.1531.065547-.324163.2695312-.539062.2039842-.2148.5415094-.44901.9921874-.66211.842277-.39812 2.129289-.697391 3.587891-.865234z" color="#000" font-family="sans-serif" font-weight="400" overflow="visible" white-space="normal" style="line-height:normal;text-indent:0;text-align:start;text-decoration-line:none;text-decoration-style:solid;text-decoration-color:#000;text-transform:none;block-progression:tb;isolation:auto;mix-blend-mode:normal"/>
</svg>