<svg xmlns="http://www.w3.org/2000/svg" viewBox="0 0 511.995 511.995" width="200" height="200">
  <path d="M487.772 199.438L108.407 77.997c-17.814-5.721-36.612 3.652-42.761 21.32l-41.82 119.73 16.146 5.636 41.82-119.739c3.079-8.834 12.461-13.555 21.389-10.656L482.7 215.772c9.04 2.711 14.171 12.272 11.409 21.492l-31.9 101.779 16.318 5.114 32.019-102.164c5.422-18.062-4.857-37.176-22.774-42.555z" data-original="#000000" class="active-path" data-old_color="#000000" fill="#FFF"/>
  <path data-original="#000000" class="active-path" data-old_color="#000000" fill="#FFF" d="M358.06192 189.3679828l5.4706145-16.1677568 16.1999616 5.4815115-5.4706145 16.1677568zM347.1155907 221.7991223l5.4706145-16.1677568 16.1999616 5.4815115-5.4706145 16.1677568z"/>
  <path data-original="#000000" class="active-path" data-old_color="#000000" fill="#FFF" d="M57.2033288 134.3688488l5.343602-16.24975 290.7988 95.6268896-5.343602 16.24975zM90.4229434 180.4840147l5.4544656-16.2111712 72.952166 24.545733-5.4544656 16.2111712zM195.7169085 215.9282263l5.5399856-16.1820944 40.96613 14.02487-5.5399856 16.1820944zM467.6519574 272.7225156l5.4057552-16.2189752 25.6547454 8.5506804-5.4057552 16.2189752z"/>
  <path d="M436.16 213.318H42.761C19.182 213.318 0 232.5 0 256.079v136.834c0 23.578 19.182 42.761 42.761 42.761H436.16c23.578 0 42.761-19.182 42.761-42.761V256.079c-.001-23.579-19.183-42.761-42.761-42.761zm25.656 179.595c0 14.145-11.511 25.656-25.656 25.656H42.761c-14.145 0-25.656-11.511-25.656-25.656V256.079c0-14.145 11.511-25.656 25.656-25.656H436.16c14.145 0 25.656 11.511 25.656 25.656v136.834z" data-original="#000000" class="active-path" data-old_color="#000000" fill="#FFF"/>
  <path data-original="#000000" class="active-path" data-old_color="#000000" fill="#FFF" d="M307.877 230.422h17.104v17.104h-17.104zM307.877 264.631h17.104v17.104h-17.104zM307.877 298.839h17.104v17.104h-17.104zM307.877 333.048h17.104v17.104h-17.104zM307.877 367.257h17.104v17.104h-17.104zM307.877 401.465h17.104v17.104h-17.104z"/>
  <path data-original="#000000" class="active-path" data-old_color="#000000" fill="#FFF" d="M8.552 273.183h461.816v17.104H8.552zM59.865 341.6v-8.552H42.761v25.656h94.073V341.6zM410.503 307.391h34.209v17.104h-34.209zM410.503 341.6h34.209v17.104h-34.209zM410.503 375.809h34.209v17.104h-34.209zM342.086 307.391h51.313v17.104h-51.313zM342.086 341.6h34.209v17.104h-34.209zM342.086 375.809h51.313v17.104h-51.313zM162.491 307.391h111.178v17.104H162.491zM162.491 341.6h111.178v17.104H162.491zM162.491 375.809h76.969v17.104h-76.969z"/>
  <path data-original="#000000" class="active-path" data-old_color="#000000" fill="#FFF" d="M83.811 310.821l-13.683 10.254 21.808 29.077-21.808 29.086 13.683 10.254 29.505-39.34z"/>
</svg>