<svg xmlns="http://www.w3.org/2000/svg" viewBox="0 0 512 512"><path d="M65.071 153.262a10.076 10.076 0 0 0-7.07-2.93c-2.64 0-5.21 1.07-7.07 2.93a10.033 10.033 0 0 0-2.93 7.07c0 2.64 1.06 5.21 2.93 7.07 1.86 1.87 4.43 2.93 7.07 2.93 2.63 0 5.21-1.06 7.07-2.93 1.86-1.86 2.93-4.43 2.93-7.07 0-2.63-1.07-5.21-2.93-7.07z"/><path d="M462.001 27.005H49.999C22.429 27.005 0 49.435 0 77.004v277.993c0 27.569 22.429 49.999 49.999 49.999h84.011v69.998a10.002 10.002 0 0 0 17.071 7.072l77.069-77.069h59.355c5.523 0 10-4.477 10-10s-4.477-10-10-10h-63.498a10.001 10.001 0 0 0-7.071 2.929l-62.927 62.927v-55.857c0-5.523-4.477-10-10-10h-94.01C33.457 384.997 20 371.54 20 354.998V77.005c0-15.869 12.388-28.891 27.999-29.925v75.752c0 5.523 4.477 10 10 10s10-4.477 10-10V47.005h394.003c16.542 0 29.999 13.458 29.999 29.999v277.993c0 16.542-13.458 29.999-29.999 29.999h-82.498c-5.523 0-10 4.477-10 10s4.477 10 10 10h82.498c27.569 0 49.999-22.429 49.999-49.999V77.004c-.001-27.569-22.43-49.999-50-49.999z"/><path d="M343.074 387.926c-1.86-1.86-4.44-2.93-7.07-2.93s-5.21 1.07-7.07 2.93c-1.86 1.86-2.93 4.44-2.93 7.07s1.07 5.21 2.93 7.07c1.86 1.86 4.44 2.93 7.07 2.93s5.21-1.07 7.07-2.93c1.86-1.86 2.93-4.44 2.93-7.07s-1.07-5.21-2.93-7.07zM256.006 65.179c-49.625 0-89.998 40.373-89.998 89.998 0 16.542 13.458 29.999 29.999 29.999 16.542 0 29.999-13.458 29.999-29.999s13.458-29.999 29.999-29.999c16.542 0 29.999 13.458 29.999 29.999s-13.458 29.999-29.999 29.999c-16.542 0-29.999 13.458-29.999 29.999v37.999c0 16.542 13.458 29.999 29.999 29.999 16.542 0 29.999-13.458 29.999-29.999v-13.136c35.692-12.599 59.998-46.448 59.998-84.862.002-49.624-40.371-89.997-89.996-89.997zm17.499 157.783a9.999 9.999 0 0 0-7.499 9.682v20.53c0 5.514-4.486 10-10 10s-10-4.486-10-10v-37.999c0-5.514 4.486-10 10-10 27.569 0 49.999-22.429 49.999-49.999s-22.429-49.999-49.999-49.999c-27.569 0-49.999 22.428-49.999 49.999 0 5.514-4.486 10-10 10s-10-4.486-10-10c0-38.597 31.401-69.998 69.998-69.998 38.597 0 69.998 31.401 69.998 69.998.002 31.928-21.587 59.803-52.498 67.786zM277.227 315.099c-5.576-5.591-13.311-8.799-21.221-8.799s-15.644 3.207-21.202 8.78c-5.59 5.576-8.797 13.311-8.797 21.219 0 7.909 3.206 15.644 8.788 21.21 5.586 5.585 13.317 8.789 21.211 8.789 7.896 0 15.627-3.204 21.211-8.789 5.585-5.586 8.789-13.317 8.789-21.21 0-7.893-3.203-15.624-8.779-21.2zm-14.153 28.269c-1.835 1.835-4.477 2.931-7.068 2.931-2.592 0-5.234-1.096-7.079-2.941-1.829-1.824-2.921-4.463-2.921-7.059 0-2.635 1.065-5.208 2.94-7.078 1.825-1.83 4.464-2.922 7.06-2.922 2.596 0 5.235 1.091 7.068 2.932 1.836 1.835 2.932 4.478 2.932 7.068s-1.096 5.233-2.932 7.069z"/></svg>