<svg xmlns="http://www.w3.org/2000/svg" width="150" height="150" viewBox="0 0 297 297"><path d="M221.93 183.185L62.208 279.018c-4.585 2.751-6.07 8.697-3.32 13.281a9.673 9.673 0 0 0 13.281 3.32l159.722-95.832a9.681 9.681 0 0 0-9.961-16.602zM65.502 153.422h8.559l-4.319-11.82z"/><path d="M68.64 255.192a9.665 9.665 0 0 0 6.397-2.415c2.357-2.076 57.754-51.451 57.754-102.631 0-35.385-28.778-64.174-64.151-64.174S4.489 114.761 4.489 150.146c0 51.18 55.396 100.555 57.753 102.631a9.658 9.658 0 0 0 6.398 2.415zm-8.832-85.948c-.966 2.591-1.766 4.263-2.516 5.261-.693.918-2.053 2.01-4.602 2.01-1.709 0-3.229-.623-4.518-1.853-1.296-1.234-1.982-2.752-1.982-4.391 0-.84.139-1.705.41-2.573.231-.74.596-1.724 1.113-3.005l13.281-33.744c.53-1.356 1.116-2.515 1.738-3.443a8.217 8.217 0 0 1 2.807-2.582c1.182-.668 2.61-1.007 4.25-1.007 1.659 0 3.099.339 4.279 1.007a8.342 8.342 0 0 1 2.793 2.529 15.696 15.696 0 0 1 1.579 2.918l13.745 34.064c1.081 2.594 1.588 4.434 1.588 5.772 0 1.621-.651 3.093-1.935 4.375-1.283 1.282-2.852 1.933-4.662 1.933-1.049 0-1.989-.204-2.794-.606a5.836 5.836 0 0 1-2.005-1.627c-.469-.592-.938-1.425-1.427-2.541-.425-.97-.79-1.825-1.094-2.566l-1.793-4.712H61.589l-1.781 4.781zM228.36 0c-35.373 0-64.151 28.789-64.151 64.176 0 51.179 55.396 100.554 57.754 102.631a9.665 9.665 0 0 0 6.398 2.415 9.665 9.665 0 0 0 6.398-2.415c2.357-2.077 57.753-51.452 57.753-102.631C292.512 28.789 263.733 0 228.36 0zm21.552 82.351a14.114 14.114 0 0 1-6.315 5.405c-1.622.678-3.453 1.149-5.476 1.416-1.936.256-4.217.387-6.778.387h-14.398c-2.621 0-4.59-.672-5.854-1.999-1.239-1.3-1.868-3.247-1.868-5.787V46.354c0-2.602.65-4.57 1.933-5.853 1.283-1.283 3.231-1.934 5.789-1.934h15.267c2.343 0 4.419.149 6.171.444 1.883.318 3.605.944 5.117 1.86a13.687 13.687 0 0 1 3.434 2.931 13.167 13.167 0 0 1 2.3 3.959c.525 1.441.792 2.979.792 4.57 0 4.134-1.64 7.546-4.784 10.036 5.689 3.11 7.002 7.985 7.002 11.819-.002 3.002-.785 5.748-2.332 8.165z"/><path d="M233.082 68.595v.04h-10.441v9.884h10.441v.029a4.976 4.976 0 1 0 0-9.953zm3.511-14.922a4.245 4.245 0 0 0-4.245-4.243h-9.707v8.486h9.707a4.244 4.244 0 0 0 4.245-4.243z"/></svg>