<svg xmlns="http://www.w3.org/2000/svg" viewBox="0 0 511.995 511.995" width="200" height="200"><path d="M487.772 199.438L108.407 77.997c-17.814-5.721-36.612 3.652-42.761 21.32l-41.82 119.73 16.146 5.636 41.82-119.739c3.079-8.834 12.461-13.555 21.389-10.656L482.7 215.772c9.04 2.711 14.171 12.272 11.409 21.492l-31.9 101.779 16.318 5.114 32.019-102.164c5.422-18.062-4.857-37.176-22.774-42.555z" data-original="#000000" class="active-path" data-old_color="#000000" fill="#FFF"/><path data-original="#000000" class="active-path" data-old_color="#000000" fill="#FFF" d="M358.062 189.368l5.47-16.168 16.2 5.482-5.47 16.167zm-10.946 32.431l5.47-16.168 16.2 5.482-5.47 16.168z"/><path data-original="#000000" class="active-path" data-old_color="#000000" fill="#FFF" d="M57.203 134.369l5.344-16.25 290.799 95.627-5.344 16.25zm33.22 46.115l5.454-16.211 72.953 24.546-5.455 16.21zm105.294 35.444l5.54-16.182 40.966 14.025-5.54 16.182zm271.935 56.795l5.406-16.22 25.654 8.551-5.405 16.22z"/><path d="M436.16 213.318H42.761C19.182 213.318 0 232.5 0 256.079v136.834c0 23.578 19.182 42.761 42.761 42.761H436.16c23.578 0 42.761-19.182 42.761-42.761V256.079c-.001-23.579-19.183-42.761-42.761-42.761zm25.656 179.595c0 14.145-11.511 25.656-25.656 25.656H42.761c-14.145 0-25.656-11.511-25.656-25.656V256.079c0-14.145 11.511-25.656 25.656-25.656H436.16c14.145 0 25.656 11.511 25.656 25.656v136.834z" data-original="#000000" class="active-path" data-old_color="#000000" fill="#FFF"/><path data-original="#000000" class="active-path" data-old_color="#000000" fill="#FFF" d="M307.877 230.422h17.104v17.104h-17.104zm0 34.209h17.104v17.104h-17.104zm0 34.208h17.104v17.104h-17.104zm0 34.209h17.104v17.104h-17.104zm0 34.209h17.104v17.104h-17.104zm0 34.208h17.104v17.104h-17.104z"/><path data-original="#000000" class="active-path" data-old_color="#000000" fill="#FFF" d="M8.552 273.183h461.816v17.104H8.552zM59.865 341.6v-8.552H42.761v25.656h94.073V341.6zm350.638-34.209h34.209v17.104h-34.209zm0 34.209h34.209v17.104h-34.209zm0 34.209h34.209v17.104h-34.209zm-68.417-68.418h51.313v17.104h-51.313zm0 34.209h34.209v17.104h-34.209zm0 34.209h51.313v17.104h-51.313zm-179.595-68.418h111.178v17.104H162.491zm0 34.209h111.178v17.104H162.491zm0 34.209h76.969v17.104h-76.969z"/><path data-original="#000000" class="active-path" data-old_color="#000000" fill="#FFF" d="M83.811 310.821l-13.683 10.254 21.808 29.077-21.808 29.086 13.683 10.254 29.505-39.34z"/></svg>